<?xml version="1.0" standalone="no"?>
<svg viewBox="0 0 200 200" xmlns="http://www.w3.org/2000/svg">
  <path fill="#FF0066" d="M40.2,-65.4C50.5,-55.8,56.3,-42.1,57.4,-29.3C58.4,-16.5,54.7,-4.6,51.9,6.7C49.2,18,47.4,28.8,41.9,37.9C36.4,46.9,27.3,54.4,15.3,62.9C3.3,71.3,-11.6,80.9,-24.3,78.9C-37,77,-47.4,63.5,-51.3,49.7C-55.3,35.8,-52.8,21.5,-53.3,8.5C-53.8,-4.4,-57.3,-16.1,-56.2,-28.7C-55.2,-41.3,-49.6,-54.9,-39.4,-64.6C-29.3,-74.3,-14.7,-80.2,0.1,-80.4C14.9,-80.6,29.8,-75.1,40.2,-65.4Z" transform="translate(100 100)" />
</svg>



